<svg xmlns="http://www.w3.org/2000/svg" width="40" height="40" viewBox="0 0 500 500">
<rect width="100%" height="100%" fill="#CCCCCC" rx="60" ry="60"/>
  <path d="M 115 26 L 95 36 L 90 40 L 87 41 L 78 49 L 77 49 L 77 50 L 75 51 L 73 54 L 72 54 L 72 55 L 69 58 L 69 59 L 65 64 L 61 72 L 61 76 L 60 77 L 60 180 L 61 181 L 61 185 L 63 189 L 63 194 L 61 197 L 61 201 L 60 202 L 60 287 L 61 288 L 61 291 L 64 297 L 64 300 L 61 305 L 61 309 L 60 310 L 60 408 L 61 409 L 61 414 L 62 415 L 63 420 L 68 430 L 71 433 L 72 436 L 80 444 L 80 445 L 81 445 L 82 447 L 83 447 L 88 452 L 92 454 L 98 459 L 103 461 L 104 463 L 106 463 L 110 466 L 120 471 L 122 471 L 127 474 L 129 474 L 132 476 L 137 477 L 140 479 L 146 480 L 150 482 L 153 482 L 157 484 L 164 485 L 168 487 L 173 487 L 174 488 L 177 488 L 178 489 L 183 489 L 184 490 L 188 490 L 189 491 L 195 491 L 196 492 L 211 493 L 212 494 L 223 494 L 224 495 L 277 495 L 278 494 L 290 494 L 291 493 L 298 493 L 299 492 L 306 492 L 307 491 L 319 490 L 320 489 L 329 488 L 330 487 L 333 487 L 334 486 L 337 486 L 338 485 L 345 484 L 349 482 L 352 482 L 356 480 L 359 480 L 362 478 L 367 477 L 377 472 L 379 472 L 397 463 L 399 461 L 402 460 L 412 452 L 413 452 L 426 439 L 426 438 L 432 431 L 437 421 L 437 419 L 439 415 L 439 411 L 440 410 L 440 309 L 439 308 L 439 305 L 438 304 L 438 302 L 436 298 L 439 292 L 439 288 L 440 287 L 440 201 L 439 200 L 439 197 L 437 194 L 437 189 L 438 188 L 438 186 L 439 185 L 439 181 L 440 180 L 440 77 L 439 76 L 439 72 L 434 62 L 429 56 L 429 55 L 419 45 L 418 45 L 415 42 L 414 42 L 409 38 L 406 37 L 399 32 L 393 29 L 391 29 L 389 27 L 387 27 L 384 25 L 382 25 L 377 22 L 374 22 L 373 21 L 371 21 L 370 20 L 368 20 L 367 19 L 365 19 L 364 18 L 362 18 L 358 16 L 355 16 L 354 15 L 347 14 L 343 12 L 339 12 L 338 11 L 334 11 L 333 10 L 328 10 L 327 9 L 323 9 L 322 8 L 315 8 L 314 7 L 308 7 L 307 6 L 300 6 L 299 5 L 288 5 L 287 4 L 272 4 L 271 3 L 235 3 L 234 4 L 219 4 L 218 5 L 207 5 L 206 6 L 198 6 L 197 7 L 190 7 L 189 8 L 183 8 L 182 9 L 177 9 L 176 10 L 172 10 L 171 11 L 160 12 L 159 13 L 157 13 L 153 15 L 149 15 L 148 16 L 145 16 L 144 17 L 142 17 L 138 19 L 131 20 L 125 23 L 123 23 L 117 26 Z" fill="#333333"/>
  <path d="M 81 323 L 83 320 L 91 327 L 94 328 L 102 334 L 116 341 L 118 341 L 120 343 L 125 344 L 128 346 L 133 347 L 139 350 L 142 350 L 143 351 L 145 351 L 149 353 L 152 353 L 153 354 L 156 354 L 160 356 L 165 356 L 166 357 L 174 358 L 175 359 L 179 359 L 180 360 L 187 360 L 188 361 L 193 361 L 194 362 L 199 362 L 200 363 L 209 363 L 210 364 L 214 364 L 215 365 L 215 367 L 214 368 L 214 372 L 213 373 L 213 376 L 211 380 L 211 383 L 210 384 L 210 387 L 209 388 L 209 391 L 208 392 L 207 399 L 205 403 L 205 406 L 204 407 L 204 412 L 205 413 L 205 415 L 208 419 L 214 422 L 219 422 L 220 421 L 224 420 L 228 416 L 228 415 L 231 412 L 231 411 L 236 405 L 238 401 L 244 394 L 245 391 L 249 387 L 249 386 L 255 379 L 256 376 L 260 372 L 260 371 L 264 366 L 266 365 L 281 365 L 282 364 L 301 363 L 302 362 L 309 362 L 310 361 L 314 361 L 315 360 L 322 360 L 323 359 L 332 358 L 333 357 L 336 357 L 337 356 L 340 356 L 341 355 L 345 355 L 349 353 L 352 353 L 356 351 L 359 351 L 362 349 L 368 348 L 371 346 L 373 346 L 376 344 L 378 344 L 383 341 L 385 341 L 387 339 L 389 339 L 397 335 L 399 333 L 402 332 L 404 330 L 411 326 L 415 322 L 418 321 L 419 322 L 419 404 L 418 405 L 418 410 L 415 415 L 415 417 L 411 422 L 410 425 L 408 426 L 408 427 L 401 434 L 400 434 L 396 438 L 392 440 L 389 443 L 363 456 L 360 456 L 357 458 L 355 458 L 349 461 L 346 461 L 342 463 L 339 463 L 335 465 L 327 466 L 326 467 L 323 467 L 322 468 L 317 468 L 316 469 L 312 469 L 311 470 L 304 470 L 303 471 L 298 471 L 297 472 L 277 473 L 276 474 L 226 474 L 225 473 L 214 473 L 213 472 L 197 471 L 196 470 L 191 470 L 190 469 L 186 469 L 185 468 L 180 468 L 179 467 L 176 467 L 175 466 L 172 466 L 171 465 L 168 465 L 167 464 L 160 463 L 159 462 L 157 462 L 153 460 L 150 460 L 149 459 L 144 458 L 136 454 L 134 454 L 114 444 L 112 442 L 105 438 L 102 435 L 101 435 L 90 424 L 87 418 L 85 416 L 85 414 L 82 408 L 82 404 L 81 403 Z" fill="#CCCCCC"/>
  <path d="M 419 215 L 419 280 L 418 281 L 418 285 L 413 295 L 410 298 L 410 299 L 408 300 L 408 301 L 405 304 L 404 304 L 403 306 L 402 306 L 396 311 L 395 311 L 390 315 L 387 316 L 385 318 L 383 318 L 379 320 L 377 322 L 375 322 L 372 324 L 370 324 L 367 326 L 362 327 L 359 329 L 357 329 L 353 331 L 350 331 L 346 333 L 343 333 L 342 334 L 339 334 L 338 335 L 335 335 L 334 336 L 331 336 L 330 337 L 326 337 L 325 338 L 322 338 L 321 339 L 309 340 L 308 341 L 300 341 L 299 342 L 292 342 L 291 343 L 281 343 L 280 342 L 284 335 L 287 332 L 288 329 L 290 327 L 292 323 L 296 319 L 297 316 L 299 314 L 301 310 L 307 303 L 308 300 L 311 297 L 311 296 L 319 285 L 320 281 L 321 280 L 321 277 L 320 276 L 319 272 L 318 272 L 315 269 L 313 269 L 312 268 L 291 268 L 290 269 L 274 269 L 273 268 L 273 265 L 275 263 L 277 258 L 279 256 L 299 255 L 300 254 L 307 254 L 308 253 L 321 252 L 322 251 L 327 251 L 328 250 L 337 249 L 338 248 L 341 248 L 342 247 L 346 247 L 350 245 L 353 245 L 357 243 L 360 243 L 361 242 L 369 240 L 372 238 L 375 238 L 377 236 L 379 236 L 387 232 L 389 232 L 393 229 L 405 223 L 417 214 Z" fill="#CCCCCC"/>
  <path d="M 81 215 L 82 214 L 84 214 L 94 222 L 99 224 L 101 226 L 104 227 L 106 229 L 112 232 L 114 232 L 117 234 L 119 234 L 126 238 L 128 238 L 129 239 L 131 239 L 135 241 L 138 241 L 141 243 L 144 243 L 148 245 L 151 245 L 152 246 L 155 246 L 156 247 L 159 247 L 160 248 L 163 248 L 164 249 L 167 249 L 168 250 L 173 250 L 174 251 L 178 251 L 179 252 L 185 252 L 186 253 L 191 253 L 192 254 L 199 254 L 200 255 L 205 255 L 206 256 L 206 258 L 200 270 L 200 272 L 196 279 L 196 281 L 191 290 L 191 292 L 187 299 L 187 301 L 184 306 L 183 312 L 184 313 L 185 317 L 188 320 L 192 322 L 227 322 L 229 324 L 228 325 L 228 327 L 227 328 L 227 330 L 226 331 L 226 333 L 225 334 L 223 342 L 222 343 L 209 343 L 208 342 L 202 342 L 201 341 L 193 341 L 192 340 L 181 339 L 180 338 L 176 338 L 175 337 L 172 337 L 171 336 L 167 336 L 166 335 L 163 335 L 162 334 L 155 333 L 154 332 L 152 332 L 148 330 L 142 329 L 139 327 L 136 327 L 131 324 L 126 323 L 122 320 L 120 320 L 116 317 L 111 315 L 106 311 L 103 310 L 98 305 L 97 305 L 89 297 L 89 296 L 85 291 L 83 287 L 83 284 L 82 283 L 82 280 L 81 279 L 81 218 L 82 217 Z" fill="#CCCCCC"/>
  <path d="M 279 204 L 281 207 L 274 220 L 274 222 L 272 224 L 270 228 L 269 232 L 267 234 L 267 236 L 263 243 L 263 245 L 261 247 L 261 249 L 259 251 L 257 255 L 257 257 L 251 268 L 251 270 L 249 272 L 249 274 L 248 275 L 248 282 L 252 286 L 254 287 L 274 287 L 275 286 L 293 286 L 294 288 L 291 292 L 291 293 L 288 296 L 287 299 L 285 301 L 283 305 L 280 308 L 277 314 L 275 315 L 274 318 L 272 320 L 272 321 L 270 323 L 266 330 L 263 333 L 263 334 L 259 339 L 256 345 L 254 346 L 253 349 L 248 355 L 248 356 L 246 358 L 242 365 L 239 368 L 235 375 L 233 376 L 232 375 L 232 373 L 234 369 L 235 363 L 237 360 L 238 354 L 240 351 L 240 348 L 241 347 L 243 339 L 245 336 L 245 333 L 246 332 L 247 327 L 249 324 L 249 321 L 251 317 L 251 311 L 249 307 L 245 305 L 242 305 L 241 304 L 208 304 L 207 303 L 207 301 L 212 291 L 212 289 L 214 287 L 214 285 L 221 271 L 221 269 L 223 267 L 223 265 L 226 260 L 226 258 L 230 251 L 230 249 L 233 244 L 233 242 L 235 240 L 235 238 L 239 231 L 239 229 L 242 224 L 242 222 L 244 219 L 244 217 L 246 215 L 246 213 L 249 207 L 251 205 L 276 205 L 277 204 Z" fill="#CCCCCC"/>
  <path d="M 81 127 L 83 125 L 84 125 L 87 128 L 88 128 L 91 131 L 94 132 L 96 134 L 116 144 L 124 146 L 127 148 L 129 148 L 130 149 L 132 149 L 133 150 L 135 150 L 139 152 L 142 152 L 143 153 L 146 153 L 150 155 L 158 156 L 159 157 L 162 157 L 163 158 L 173 159 L 174 160 L 179 160 L 180 161 L 186 161 L 187 162 L 191 162 L 192 163 L 202 163 L 203 164 L 212 164 L 213 165 L 228 165 L 229 166 L 272 166 L 273 165 L 289 165 L 290 164 L 299 164 L 300 163 L 309 163 L 310 162 L 316 162 L 317 161 L 322 161 L 323 160 L 328 160 L 329 159 L 333 159 L 334 158 L 344 157 L 345 156 L 348 156 L 352 154 L 359 153 L 360 152 L 362 152 L 363 151 L 365 151 L 369 149 L 372 149 L 375 147 L 380 146 L 385 143 L 387 143 L 405 134 L 407 132 L 414 128 L 417 125 L 419 127 L 419 175 L 418 176 L 418 179 L 417 180 L 417 182 L 415 186 L 413 188 L 413 189 L 403 199 L 402 199 L 398 203 L 395 204 L 390 208 L 378 214 L 376 214 L 369 218 L 367 218 L 361 221 L 358 221 L 357 222 L 355 222 L 351 224 L 348 224 L 347 225 L 344 225 L 343 226 L 340 226 L 339 227 L 336 227 L 335 228 L 326 229 L 325 230 L 320 230 L 319 231 L 314 231 L 313 232 L 308 232 L 307 233 L 300 233 L 299 234 L 290 234 L 289 233 L 291 230 L 291 228 L 293 225 L 293 223 L 295 221 L 296 217 L 298 215 L 299 211 L 301 208 L 301 206 L 303 204 L 303 202 L 304 201 L 304 195 L 303 194 L 303 192 L 299 188 L 295 186 L 272 186 L 271 187 L 245 187 L 244 188 L 240 188 L 235 192 L 230 202 L 230 204 L 228 207 L 228 209 L 217 231 L 217 233 L 215 235 L 201 234 L 200 233 L 192 233 L 191 232 L 181 231 L 180 230 L 176 230 L 175 229 L 171 229 L 170 228 L 165 228 L 161 226 L 157 226 L 156 225 L 150 224 L 149 223 L 147 223 L 146 222 L 138 220 L 135 218 L 130 217 L 106 205 L 100 200 L 99 200 L 95 196 L 94 196 L 85 185 L 83 181 L 83 179 L 82 178 L 82 174 L 81 173 Z" fill="#CCCCCC"/>
  <path d="M 81 84 L 82 83 L 82 79 L 87 70 L 91 66 L 92 64 L 93 64 L 101 57 L 102 57 L 107 53 L 109 53 L 111 51 L 117 48 L 119 48 L 128 43 L 130 43 L 131 42 L 133 42 L 134 41 L 136 41 L 140 39 L 143 39 L 146 37 L 154 36 L 158 34 L 162 34 L 163 33 L 166 33 L 167 32 L 172 32 L 173 31 L 182 30 L 183 29 L 189 29 L 190 28 L 196 28 L 197 27 L 205 27 L 206 26 L 216 26 L 217 25 L 234 25 L 235 24 L 268 24 L 269 25 L 289 25 L 290 26 L 298 26 L 299 27 L 307 27 L 308 28 L 314 28 L 315 29 L 322 29 L 323 30 L 327 30 L 328 31 L 331 31 L 332 32 L 337 32 L 341 34 L 345 34 L 349 36 L 353 36 L 356 38 L 359 38 L 360 39 L 368 41 L 371 43 L 373 43 L 378 46 L 380 46 L 392 52 L 394 54 L 397 55 L 403 60 L 404 60 L 415 72 L 418 78 L 418 81 L 419 82 L 419 87 L 418 88 L 418 92 L 416 96 L 412 101 L 412 102 L 410 103 L 410 104 L 407 107 L 406 107 L 398 114 L 395 115 L 393 117 L 377 125 L 372 126 L 369 128 L 366 128 L 365 129 L 360 130 L 357 132 L 354 132 L 353 133 L 350 133 L 349 134 L 346 134 L 345 135 L 342 135 L 341 136 L 338 136 L 337 137 L 333 137 L 332 138 L 329 138 L 328 139 L 322 139 L 321 140 L 316 140 L 315 141 L 308 141 L 307 142 L 300 142 L 299 143 L 288 143 L 287 144 L 272 144 L 271 145 L 230 145 L 229 144 L 212 144 L 211 143 L 203 143 L 202 142 L 195 142 L 194 141 L 187 141 L 186 140 L 174 139 L 173 138 L 170 138 L 169 137 L 165 137 L 164 136 L 160 136 L 159 135 L 152 134 L 151 133 L 145 132 L 144 131 L 142 131 L 141 130 L 139 130 L 138 129 L 130 127 L 127 125 L 125 125 L 120 122 L 118 122 L 106 116 L 100 111 L 96 109 L 87 100 L 87 99 L 85 97 L 83 93 L 83 91 L 82 90 L 82 86 Z" fill="#CCCCCC"/>
</svg>